PathFileType	4	(X/Y/Z)	..\data\2014030\dynamic\2014030_C5_02.trc
DataRate	CameraRate	NumFrames	NumMarkers	Units	OrigDataRate	OrigDataStartFrame	OrigNumFrames
100.000000	100.000000	4	52	mm	100.000000	19	155
Frame#	Time	L_IAS			L_IPS			R_IPS			R_IAS			L_FTC			L_FLE			L_FME			L_FAX			L_TTC			L_FAL			L_TAM			L_FCC			L_FM1			L_FM2			L_FM5			R_FTC			R_FLE			R_FME			R_FAX			R_TTC			R_FAL			R_TAM			R_FCC			R_FM1			R_FM2			R_FM5			CV7			TV10			SXS			SJN			L_SIA			L_SRS			L_SAA			L_SAE			L_HLE			L_HME			L_UOA			L_RSP			L_UHE			L_HM2			L_HM5			R_SIA			R_SRS			R_SAA			R_SAE			R_HLE			R_HME			R_UOA			R_RSP			R_UHE			R_HM2			R_HM5			
		X1	Y1	Z1	X2	Y2	Z2	X3	Y3	Z3	X4	Y4	Z4	X5	Y5	Z5	X6	Y6	Z6	X7	Y7	Z7	X8	Y8	Z8	X9	Y9	Z9	X10	Y10	Z10	X11	Y11	Z11	X12	Y12	Z12	X13	Y13	Z13	X14	Y14	Z14	X15	Y15	Z15	X16	Y16	Z16	X17	Y17	Z17	X18	Y18	Z18	X19	Y19	Z19	X20	Y20	Z20	X21	Y21	Z21	X22	Y22	Z22	X23	Y23	Z23	X24	Y24	Z24	X25	Y25	Z25	X26	Y26	Z26	X27	Y27	Z27	X28	Y28	Z28	X29	Y29	Z29	X30	Y30	Z30	X31	Y31	Z31	X32	Y32	Z32	X33	Y33	Z33	X34	Y34	Z34	X35	Y35	Z35	X36	Y36	Z36	X37	Y37	Z37	X38	Y38	Z38	X39	Y39	Z39	X40	Y40	Z40	X41	Y41	Z41	X42	Y42	Z42	X43	Y43	Z43	X44	Y44	Z44	X45	Y45	Z45	X46	Y46	Z46	X47	Y47	Z47	X48	Y48	Z48	X49	Y49	Z49	X50	Y50	Z50	X51	Y51	Z51	X52	Y52	Z52	

20	0.19	26.73355674743653	911.0501098632815	-348.7675170898438	-168.6831207275391	960.2672119140627	-262.9405212402344	-154.4397735595703	966.6077880859377	-147.7172393798828	51.59379196166994	929.5549316406252	-97.0188903808594	-48.75266647338869	840.877380371094	-391.2476196289064	-51.49605178833009	445.139617919922	-355.8576354980469	-20.96119689941407	438.5981750488282	-239.1383819580079	-92.16197204589845	403.429656982422	-358.2820739746094	-38.65097427368165	367.0676269531251	-309.6798400878907	-349.8316650390626	192.4676055908204	-330.9168090820313	-324.1331481933594	190.7410278320313	-245.3432617187501	-405.5755615234376	210.9921417236329	-287.4916687011719	-330.0063781738282	61.65525054931642	-222.7433166503907	-319.0854187011719	47.78895950317384	-277.1749877929688	-355.1433410644532	53.25717926025392	-324.3132324218751	-23.90538978576661	848.4356689453127	-34.64442825317384	95.35549926757814	469.3641662597657	-108.3804321289063	90.96218872070314	476.6202087402345	-231.354476928711	94.31748199462892	409.3863830566407	-110.6490173339844	143.5753326416016	413.991424560547	-171.4315490722657	85.57366180419923	71.03829193115236	-144.842514038086	98.10102081298831	83.88201141357423	-234.9080963134766	34.62821578979493	18.07235336303711	-188.7309112548828	220.690170288086	24.26809692382813	-226.4690399169922	226.6561584472657	38.19142532348634	-168.2959747314453	185.5838012695313	13.20780754089356	-116.2212524414063	-82.33831787109376	1419.151977539063	-202.7775573730469	-159.1595764160157	1193.159545898438	-232.1433563232422	79.48398590087892	1106.853149414063	-232.3094635009766	44.3911361694336	1325.47265625	-223.7733917236329	-165.1536407470703	1228.676025390625	-326.3195190429688	-128.0036010742188	1359.4453125	-326.7682800292969	-75.94683074951173	1362.432983398438	-393.2001037597657	-20.23928260803223	1372.130126953125	-406.503143310547	-27.80459213256837	1064.629760742188	-506.0624084472657	-74.36600494384767	1048.151123046875	-446.8074035644532	-58.22914123535158	1025.494506835938	-486.3723144531251	133.6399078369141	885.1113891601565	-435.104705810547	96.34439086914065	865.599792480469	-494.8958435058595	192.6273040771485	818.8232421875002	-432.9244079589845	115.9031143188477	798.4926757812502	-499.7887268066407	-164.3088684082032	1212.713989257813	-140.8447723388672	-119.3478622436524	1332.611572265625	-110.5903549194336	-79.2897415161133	1332.881958007813	-55.87955856323244	-25.07782363891602	1334.707275390625	-33.58703231811524	-99.22995758056643	1026.484375	37.26203536987305	-136.9189147949219	1016.184204101563	-34.15441131591798	-138.4541168212891	1002.977172851563	12.26611709594727	-68.84414672851564	780.3157348632815	8.055324554443361	-108.2847518920899	793.9639892578127	76.37030029296876	-48.20484542846681	696.7907104492189	18.29681968688965	-110.7273330688477	723.6423339843751	94.1564407348633	
21	0.2	39.62311935424805	912.3457641601565	-348.3128356933594	-155.8406982421875	961.8664550781252	-262.1360168457032	-141.5369110107422	968.5395507812502	-146.9813995361328	64.33435821533205	931.2235107421877	-96.44170379638675	-35.52982330322266	842.4016723632815	-390.6668395996095	-25.14911651611329	446.870574951172	-356.5296630859376	3.546355247497559	441.2090759277345	-239.2366638183594	-65.40950012207033	405.2062377929689	-359.0364074707032	-12.63957786560059	369.4678649902344	-309.8202209472657	-324.6928405761719	196.9500427246094	-333.1589355468751	-299.7240600585938	195.0667572021485	-247.3713073730469	-380.9900512695313	214.871810913086	-290.0413513183594	-303.4665832519532	65.09232330322267	-226.8792419433594	-292.9230651855469	51.87948989868165	-281.2988281250001	-328.8678894042969	58.26925277709962	-328.2078857421876	-10.66814231872559	850.4844970703127	-33.96138000488282	101.7120819091797	469.1740112304689	-108.1645584106446	97.04626464843753	476.3269958496095	-231.2539215087891	99.55955505371097	409.172821044922	-110.5149154663086	149.040771484375	413.0322265625001	-171.3006591796875	86.17025756835939	71.1483840942383	-144.7724151611328	98.622917175293	83.93160247802736	-234.8800964355469	35.0597038269043	18.24159622192383	-188.6321258544922	220.6329345703126	23.76943397521973	-226.6865539550782	227.2791137695313	37.99750518798829	-168.4610748291016	185.94091796875	13.52743721008301	-115.8802261352539	-69.07442474365236	1420.877319335938	-202.6289672851563	-146.1560668945313	1194.92822265625	-231.8350677490235	92.41035461425783	1108.308959960938	-232.4747772216797	57.50121307373048	1327.088623046875	-223.9305267333985	-152.284896850586	1230.334716796875	-325.8493041992188	-115.02490234375	1361.109497070313	-326.4726562500001	-63.18785858154298	1364.050170898438	-393.0257263183595	-7.543062686920168	1373.64306640625	-406.6152648925782	-17.87460327148438	1065.775024414063	-505.1009826660157	-65.03974914550783	1050.39794921875	-446.1170959472657	-49.24916839599611	1027.624633789063	-485.6437072753907	137.9916076660157	881.2588500976565	-433.8934326171876	101.0049743652344	863.5938110351565	-494.5712890625001	194.5857849121094	812.9328613281252	-431.5097961425782	118.2779083251953	795.8763427734377	-499.6395568847657	-151.0855560302735	1214.460327148438	-140.4678344726563	-106.1576004028321	1334.387329101563	-110.3198928833008	-65.94786071777345	1334.547485351563	-55.6661834716797	-11.58844184875488	1336.247436523438	-33.56695938110352	-81.86203002929689	1027.052001953125	37.96289825439454	-120.3079605102539	1016.250549316406	-33.14980697631837	-121.1751861572266	1002.900573730469	13.1610689163208	-46.64757156372071	781.8143310546877	7.419508934020998	-86.33399200439455	794.1301879882815	75.79548645019533	-23.68828964233399	698.9030151367189	17.40327262878418	-86.85549163818361	723.8052978515626	93.34099578857423	
22	0.21	52.32817459106447	913.734313964844	-348.0248718261719	-143.1175384521485	963.5627441406252	-261.3843688964844	-128.7570495605469	970.4392089843752	-146.3182067871094	76.94702911376955	932.7812500000002	-95.90673828125001	-22.51459503173828	844.120544433594	-390.2537536621095	1.16704261302948	449.0756835937501	-356.8660888671876	27.56064796447755	444.5078430175782	-238.9403839111329	-38.50821685791016	407.2073364257814	-359.3927001953126	13.48536109924317	372.3423156738282	-309.3551025390626	-298.5086059570313	200.384506225586	-335.1173706054688	-274.3917541503907	198.5422668457032	-249.0341186523438	-355.6198425292969	217.0698852539063	-292.3181152343751	-274.5328369140626	67.70371246337892	-230.9608764648438	-264.1436157226563	55.67541122436525	-285.4075927734376	-299.9999694824219	62.66024017333986	-332.1608886718751	2.206870555877686	852.4226684570315	-33.41106796264649	107.5310668945313	468.9603881835939	-108.0126724243164	102.6625366210938	475.9938354492189	-231.1828308105469	104.2709732055664	408.9208374023439	-110.4302139282227	154.0360107421875	412.0907287597657	-171.1726531982422	86.59094238281251	71.2320022583008	-144.7306365966797	98.95526885986331	83.94949340820314	-234.8457641601563	35.36667633056641	18.34787178039551	-188.5942993164063	220.5117187500001	23.36557388305664	-226.8404693603516	227.7621612548829	37.90474700927735	-168.5732116699219	186.1319580078125	13.86557960510254	-115.6134719848633	-55.88425827026369	1422.632446289063	-202.546615600586	-133.24658203125	1196.724853515625	-231.4996643066407	105.1956787109375	1109.74560546875	-232.6213989257813	70.54402923583986	1328.71875	-224.1156463623047	-139.5283660888672	1231.979248046875	-325.3267517089844	-102.126708984375	1362.7626953125	-326.1995239257813	-50.52499008178712	1365.618774414063	-392.888641357422	5.052366733551026	1375.09326171875	-406.7937011718751	-8.143410682678224	1066.90625	-504.1519470214845	-55.92155838012697	1052.646240234375	-445.4668273925782	-40.44184494018555	1029.777465820313	-484.927215576172	141.8124084472657	877.4241943359377	-432.6185302734376	105.3909988403321	861.735534667969	-494.3099975585939	195.8806762695313	807.100036621094	-429.9728088378907	120.3360366821289	793.455749511719	-499.6078186035157	-137.96923828125	1216.269165039063	-140.1015625	-93.07497406005861	1336.2265625	-110.0825805664063	-52.70880126953126	1336.264770507813	-55.49085998535158	1.778129100799561	1337.840698242188	-33.58012771606446	-64.4116668701172	1027.64990234375	38.58498764038087	-103.5809707641602	1016.313354492188	-32.22445678710938	-103.7592239379883	1002.814514160156	13.96782112121582	-24.09570693969727	783.504577636719	6.667895793914797	-64.08493804931642	794.4246826171877	75.03112030029298	1.250236868858338	701.2912597656251	16.429443359375	-62.61402130126955	724.1600952148439	92.35899353027345	
23	0.22	64.90428924560548	915.2321777343752	-347.8605041503907	-130.4827270507813	965.3259277343752	-260.7315673828126	-116.0858917236328	972.3000488281252	-145.762939453125	89.43881225585939	934.2680664062502	-95.40921783447267	-9.614683151245119	845.9749145507815	-389.978485107422	27.30972480773926	451.7398376464845	-356.8827209472657	51.18785858154298	448.3545227050782	-238.3194427490235	-11.60295009613037	409.4369506835939	-359.3924865722657	39.64537811279298	375.6459045410157	-308.4027099609376	-271.3668212890626	202.6668243408204	-336.8088073730469	-248.1836090087891	201.0425109863282	-250.3631591796876	-329.5054016113282	217.5672607421876	-294.3321838378907	-243.5271148681641	69.44707489013673	-234.8715820312501	-233.0676269531251	59.00705337524415	-289.3675537109376	-268.8572998046876	66.25569152832033	-336.0354309082032	14.70426368713379	854.245544433594	-32.98714447021485	112.9054794311524	468.7448120117189	-107.9189071655274	107.8542861938477	475.6507263183595	-231.131088256836	108.5547866821289	408.6558227539064	-110.3866729736328	158.6308135986328	411.1896362304689	-171.0553131103516	86.88048553466798	71.28508758544923	-144.7207641601563	99.12982940673831	83.93334960937501	-234.8120117187501	35.5500602722168	18.41412734985352	-188.6054382324219	220.3538970947266	22.98990058898926	-226.9508666992188	228.1389312744141	37.83613586425782	-168.6517639160157	186.1841278076172	14.16386127471924	-115.4210205078125	-42.75534439086915	1424.4052734375	-202.5187988281251	-120.4131927490235	1198.533813476563	-231.1442565917969	117.8612823486328	1111.172729492188	-232.7264862060547	83.53240203857423	1330.349853515625	-224.3080139160157	-126.8640518188477	1233.609619140625	-324.7673339843751	-89.29408264160158	1364.402709960938	-325.9433898925782	-37.93432998657227	1367.149291992188	-392.7777404785157	17.57275390625	1376.487915039063	-407.0152893066407	1.390476822853089	1068.036743164063	-503.2021789550782	-47.00570678710938	1054.912231445313	-444.8368225097657	-31.80075836181641	1031.956787109375	-484.2044067382814	145.1386260986328	873.6680908203127	-431.3113708496095	109.5041809082032	860.0390625000002	-494.0975646972657	196.5656433105469	801.4050903320315	-428.3703918457032	122.1066513061524	791.2613525390627	-499.6929626464845	-124.9477005004883	1218.126708984375	-139.7473754882813	-80.08047485351564	1338.115356445313	-109.8714370727539	-39.5577621459961	1338.0283203125	-55.3488006591797	15.02895641326905	1339.497314453125	-33.61838531494141	-46.9035987854004	1028.301513671875	39.11861801147462	-86.72280120849611	1016.402770996094	-31.40291786193848	-86.20811462402345	1002.740905761719	14.66943645477295	-1.23131000995636	785.418640136719	5.802548408508302	-41.57445144653321	794.887634277344	74.07222747802736	26.53292655944825	703.9750366210939	15.38170242309571	-38.0701026916504	724.7518920898439	91.20543670654298	
